<?xml version="1.0" encoding="UTF-8"?>
<svg width="512" height="512" viewBox="0 0 512 512" xmlns="http://www.w3.org/2000/svg" role="img" aria-label="제철음식 알리미 아이콘">
  <!-- 배경 -->
  <defs>
    <linearGradient id="bg" x1="0" y1="0" x2="1" y2="1">
      <stop offset="0%" stop-color="#0A7B34"/>
      <stop offset="100%" stop-color="#0F9B4A"/>
    </linearGradient>
  </defs>
  <rect x="0" y="0" width="512" height="512" rx="96" ry="96" fill="url(#bg)"/>

  <!-- 알림 종 (노랑) -->
  <g transform="translate(256,270)">
    <!-- 상단 구슬 -->
    <circle cx="0" cy="-130" r="18" fill="#FFD54F"/>
    <!-- 종 몸통 -->
    <path d="M -120 60 C -120 -60 -40 -130 0 -130 C 40 -130 120 -60 120 60 L -120 60 Z" fill="#FFEB3B" />
    <!-- 하이라이트 -->
    <path d="M -80 20 C -80 -40 -30 -90 0 -90 C 5 -90 10 -89 14 -87 C 0 -110 -40 -120 -72 -96 C -92 -67 -96 -20 -96 20 Z" fill="#FFF59D" opacity="0.7"/>
    <!-- 타종추 -->
    <circle cx="0" cy="86" r="20" fill="#FFC107"/>
  </g>

  <!-- 장식: 잎사귀 (제철/자연 느낌) -->
  <g transform="translate(120,140) rotate(-18)">
    <path d="M 0 0 C 60 -20 120 -20 180 0 C 120 40 60 40 0 0 Z" fill="#7ED957" opacity="0.85"/>
  </g>
</svg>


